<mxfile host="app.diagrams.net" modified="2024-04-02T08:28:44.456Z" agent="Mozilla/5.0 (Windows NT 10.0; Win64; x64) AppleWebKit/537.36 (KHTML, like Gecko) Chrome/123.0.0.0 Safari/537.36" etag="wL2oMw0QUBaioCFGdwZp" version="24.2.1" type="device">
  <diagram name="페이지-1" id="kCJb5YFhsj4VXTDkjWdM">
    <mxGraphModel dx="2606" dy="1625" grid="0" gridSize="10" guides="1" tooltips="1" connect="1" arrows="1" fold="1" page="0" pageScale="1" pageWidth="827" pageHeight="1169" math="0" shadow="0">
      <root>
        <mxCell id="0" />
        <mxCell id="1" parent="0" />
        <mxCell id="zj5sX9OP2LHEYqVNq7Ng-1" value="" style="rounded=0;whiteSpace=wrap;html=1;" vertex="1" parent="1">
          <mxGeometry x="-106" y="-145" width="703" height="976" as="geometry" />
        </mxCell>
        <mxCell id="zj5sX9OP2LHEYqVNq7Ng-2" value="비회원" style="shape=umlActor;verticalLabelPosition=bottom;verticalAlign=top;html=1;outlineConnect=0;" vertex="1" parent="1">
          <mxGeometry x="-234" y="-54.5" width="30" height="60" as="geometry" />
        </mxCell>
        <mxCell id="zj5sX9OP2LHEYqVNq7Ng-5" value="회원" style="shape=umlActor;verticalLabelPosition=bottom;verticalAlign=top;html=1;outlineConnect=0;fillColor=#dae8fc;strokeColor=#6c8ebf;" vertex="1" parent="1">
          <mxGeometry x="-236" y="371" width="30" height="60" as="geometry" />
        </mxCell>
        <mxCell id="zj5sX9OP2LHEYqVNq7Ng-30" value="" style="group" vertex="1" connectable="0" parent="1">
          <mxGeometry x="35" y="-122" width="331" height="126" as="geometry" />
        </mxCell>
        <mxCell id="zj5sX9OP2LHEYqVNq7Ng-6" value="&lt;p style=&quot;line-height: 120%; font-size: 15px;&quot;&gt;&lt;b&gt;&lt;font color=&quot;#cc0000&quot;&gt;지역소개&lt;/font&gt;&lt;/b&gt;&lt;/p&gt;" style="ellipse;whiteSpace=wrap;html=1;" vertex="1" parent="zj5sX9OP2LHEYqVNq7Ng-30">
          <mxGeometry x="116" y="75" width="93" height="51" as="geometry" />
        </mxCell>
        <mxCell id="zj5sX9OP2LHEYqVNq7Ng-16" value="지명유래" style="ellipse;whiteSpace=wrap;html=1;" vertex="1" parent="zj5sX9OP2LHEYqVNq7Ng-30">
          <mxGeometry width="76" height="45" as="geometry" />
        </mxCell>
        <mxCell id="zj5sX9OP2LHEYqVNq7Ng-17" value="지역 특징 및&lt;div&gt;시설 안내&lt;/div&gt;" style="ellipse;whiteSpace=wrap;html=1;" vertex="1" parent="zj5sX9OP2LHEYqVNq7Ng-30">
          <mxGeometry x="85" width="76" height="45" as="geometry" />
        </mxCell>
        <mxCell id="zj5sX9OP2LHEYqVNq7Ng-20" value="연혁" style="ellipse;whiteSpace=wrap;html=1;" vertex="1" parent="zj5sX9OP2LHEYqVNq7Ng-30">
          <mxGeometry x="170" width="76" height="45" as="geometry" />
        </mxCell>
        <mxCell id="zj5sX9OP2LHEYqVNq7Ng-21" value="오시는 길" style="ellipse;whiteSpace=wrap;html=1;" vertex="1" parent="zj5sX9OP2LHEYqVNq7Ng-30">
          <mxGeometry x="255" width="76" height="45" as="geometry" />
        </mxCell>
        <mxCell id="zj5sX9OP2LHEYqVNq7Ng-22" value="" style="endArrow=classic;html=1;rounded=0;fontSize=12;startSize=8;endSize=8;curved=1;exitX=0.5;exitY=1;exitDx=0;exitDy=0;entryX=0.5;entryY=0;entryDx=0;entryDy=0;" edge="1" parent="zj5sX9OP2LHEYqVNq7Ng-30" source="zj5sX9OP2LHEYqVNq7Ng-16" target="zj5sX9OP2LHEYqVNq7Ng-6">
          <mxGeometry width="50" height="50" relative="1" as="geometry">
            <mxPoint x="52" y="146" as="sourcePoint" />
            <mxPoint x="102" y="96" as="targetPoint" />
          </mxGeometry>
        </mxCell>
        <mxCell id="zj5sX9OP2LHEYqVNq7Ng-23" value="" style="endArrow=classic;html=1;rounded=0;fontSize=12;startSize=8;endSize=8;curved=1;exitX=0.5;exitY=1;exitDx=0;exitDy=0;entryX=0.5;entryY=0;entryDx=0;entryDy=0;" edge="1" parent="zj5sX9OP2LHEYqVNq7Ng-30" source="zj5sX9OP2LHEYqVNq7Ng-17" target="zj5sX9OP2LHEYqVNq7Ng-6">
          <mxGeometry width="50" height="50" relative="1" as="geometry">
            <mxPoint x="57" y="286" as="sourcePoint" />
            <mxPoint x="107" y="236" as="targetPoint" />
          </mxGeometry>
        </mxCell>
        <mxCell id="zj5sX9OP2LHEYqVNq7Ng-24" value="" style="endArrow=classic;html=1;rounded=0;fontSize=12;startSize=8;endSize=8;curved=1;exitX=0.5;exitY=1;exitDx=0;exitDy=0;entryX=0.5;entryY=0;entryDx=0;entryDy=0;" edge="1" parent="zj5sX9OP2LHEYqVNq7Ng-30" source="zj5sX9OP2LHEYqVNq7Ng-20" target="zj5sX9OP2LHEYqVNq7Ng-6">
          <mxGeometry width="50" height="50" relative="1" as="geometry">
            <mxPoint x="19" y="240" as="sourcePoint" />
            <mxPoint x="69" y="190" as="targetPoint" />
          </mxGeometry>
        </mxCell>
        <mxCell id="zj5sX9OP2LHEYqVNq7Ng-25" value="" style="endArrow=classic;html=1;rounded=0;fontSize=12;startSize=8;endSize=8;curved=1;exitX=0.5;exitY=1;exitDx=0;exitDy=0;entryX=0.5;entryY=0;entryDx=0;entryDy=0;" edge="1" parent="zj5sX9OP2LHEYqVNq7Ng-30" source="zj5sX9OP2LHEYqVNq7Ng-21" target="zj5sX9OP2LHEYqVNq7Ng-6">
          <mxGeometry width="50" height="50" relative="1" as="geometry">
            <mxPoint x="-4" y="262" as="sourcePoint" />
            <mxPoint x="46" y="212" as="targetPoint" />
          </mxGeometry>
        </mxCell>
        <mxCell id="zj5sX9OP2LHEYqVNq7Ng-26" value="&lt;font style=&quot;font-size: 10px;&quot;&gt;&amp;lt;&amp;lt;include&amp;gt;&amp;gt;&lt;/font&gt;" style="text;html=1;align=center;verticalAlign=middle;whiteSpace=wrap;rounded=0;fontSize=16;" vertex="1" parent="zj5sX9OP2LHEYqVNq7Ng-30">
          <mxGeometry x="47" y="50" width="60" height="30" as="geometry" />
        </mxCell>
        <mxCell id="zj5sX9OP2LHEYqVNq7Ng-27" value="&lt;font style=&quot;font-size: 10px;&quot;&gt;&amp;lt;&amp;lt;include&amp;gt;&amp;gt;&lt;/font&gt;" style="text;html=1;align=center;verticalAlign=middle;whiteSpace=wrap;rounded=0;fontSize=16;" vertex="1" parent="zj5sX9OP2LHEYqVNq7Ng-30">
          <mxGeometry x="74" y="34" width="60" height="30" as="geometry" />
        </mxCell>
        <mxCell id="zj5sX9OP2LHEYqVNq7Ng-28" value="&lt;font style=&quot;font-size: 10px;&quot;&gt;&amp;lt;&amp;lt;include&amp;gt;&amp;gt;&lt;/font&gt;" style="text;html=1;align=center;verticalAlign=middle;whiteSpace=wrap;rounded=0;fontSize=16;" vertex="1" parent="zj5sX9OP2LHEYqVNq7Ng-30">
          <mxGeometry x="195" y="34" width="60" height="30" as="geometry" />
        </mxCell>
        <mxCell id="zj5sX9OP2LHEYqVNq7Ng-29" value="&lt;font style=&quot;font-size: 10px;&quot;&gt;&amp;lt;&amp;lt;include&amp;gt;&amp;gt;&lt;/font&gt;" style="text;html=1;align=center;verticalAlign=middle;whiteSpace=wrap;rounded=0;fontSize=16;" vertex="1" parent="zj5sX9OP2LHEYqVNq7Ng-30">
          <mxGeometry x="228" y="50" width="60" height="30" as="geometry" />
        </mxCell>
        <mxCell id="zj5sX9OP2LHEYqVNq7Ng-245" value="&lt;font style=&quot;font-size: 10px;&quot;&gt;&amp;lt;&amp;lt;extend&amp;gt;&amp;gt;&lt;/font&gt;" style="text;html=1;align=center;verticalAlign=middle;whiteSpace=wrap;rounded=0;fontSize=16;" vertex="1" parent="zj5sX9OP2LHEYqVNq7Ng-30">
          <mxGeometry x="255" y="75" width="60" height="30" as="geometry" />
        </mxCell>
        <mxCell id="zj5sX9OP2LHEYqVNq7Ng-140" value="" style="group" vertex="1" connectable="0" parent="1">
          <mxGeometry x="35" y="21" width="331" height="126" as="geometry" />
        </mxCell>
        <mxCell id="zj5sX9OP2LHEYqVNq7Ng-141" value="&lt;p style=&quot;line-height: 120%; font-size: 15px;&quot;&gt;&lt;b&gt;&lt;font color=&quot;#cc0000&quot;&gt;이용안내&lt;/font&gt;&lt;/b&gt;&lt;/p&gt;" style="ellipse;whiteSpace=wrap;html=1;" vertex="1" parent="zj5sX9OP2LHEYqVNq7Ng-140">
          <mxGeometry x="116" y="75" width="93" height="51" as="geometry" />
        </mxCell>
        <mxCell id="zj5sX9OP2LHEYqVNq7Ng-142" value="교통편" style="ellipse;whiteSpace=wrap;html=1;" vertex="1" parent="zj5sX9OP2LHEYqVNq7Ng-140">
          <mxGeometry width="76" height="45" as="geometry" />
        </mxCell>
        <mxCell id="zj5sX9OP2LHEYqVNq7Ng-143" value="주요 시설" style="ellipse;whiteSpace=wrap;html=1;" vertex="1" parent="zj5sX9OP2LHEYqVNq7Ng-140">
          <mxGeometry x="85" width="76" height="45" as="geometry" />
        </mxCell>
        <mxCell id="zj5sX9OP2LHEYqVNq7Ng-144" value="문화 시설" style="ellipse;whiteSpace=wrap;html=1;" vertex="1" parent="zj5sX9OP2LHEYqVNq7Ng-140">
          <mxGeometry x="170" width="76" height="45" as="geometry" />
        </mxCell>
        <mxCell id="zj5sX9OP2LHEYqVNq7Ng-145" value="맛집" style="ellipse;whiteSpace=wrap;html=1;" vertex="1" parent="zj5sX9OP2LHEYqVNq7Ng-140">
          <mxGeometry x="255" width="76" height="45" as="geometry" />
        </mxCell>
        <mxCell id="zj5sX9OP2LHEYqVNq7Ng-146" value="" style="endArrow=classic;html=1;rounded=0;fontSize=12;startSize=8;endSize=8;curved=1;exitX=0.5;exitY=1;exitDx=0;exitDy=0;entryX=0.5;entryY=0;entryDx=0;entryDy=0;" edge="1" parent="zj5sX9OP2LHEYqVNq7Ng-140" source="zj5sX9OP2LHEYqVNq7Ng-142" target="zj5sX9OP2LHEYqVNq7Ng-141">
          <mxGeometry width="50" height="50" relative="1" as="geometry">
            <mxPoint x="52" y="146" as="sourcePoint" />
            <mxPoint x="102" y="96" as="targetPoint" />
          </mxGeometry>
        </mxCell>
        <mxCell id="zj5sX9OP2LHEYqVNq7Ng-147" value="" style="endArrow=classic;html=1;rounded=0;fontSize=12;startSize=8;endSize=8;curved=1;exitX=0.5;exitY=1;exitDx=0;exitDy=0;entryX=0.5;entryY=0;entryDx=0;entryDy=0;" edge="1" parent="zj5sX9OP2LHEYqVNq7Ng-140" source="zj5sX9OP2LHEYqVNq7Ng-143" target="zj5sX9OP2LHEYqVNq7Ng-141">
          <mxGeometry width="50" height="50" relative="1" as="geometry">
            <mxPoint x="57" y="286" as="sourcePoint" />
            <mxPoint x="107" y="236" as="targetPoint" />
          </mxGeometry>
        </mxCell>
        <mxCell id="zj5sX9OP2LHEYqVNq7Ng-148" value="" style="endArrow=classic;html=1;rounded=0;fontSize=12;startSize=8;endSize=8;curved=1;exitX=0.5;exitY=1;exitDx=0;exitDy=0;entryX=0.5;entryY=0;entryDx=0;entryDy=0;" edge="1" parent="zj5sX9OP2LHEYqVNq7Ng-140" source="zj5sX9OP2LHEYqVNq7Ng-144" target="zj5sX9OP2LHEYqVNq7Ng-141">
          <mxGeometry width="50" height="50" relative="1" as="geometry">
            <mxPoint x="19" y="240" as="sourcePoint" />
            <mxPoint x="69" y="190" as="targetPoint" />
          </mxGeometry>
        </mxCell>
        <mxCell id="zj5sX9OP2LHEYqVNq7Ng-149" value="" style="endArrow=classic;html=1;rounded=0;fontSize=12;startSize=8;endSize=8;curved=1;exitX=0.5;exitY=1;exitDx=0;exitDy=0;entryX=0.5;entryY=0;entryDx=0;entryDy=0;" edge="1" parent="zj5sX9OP2LHEYqVNq7Ng-140" source="zj5sX9OP2LHEYqVNq7Ng-145" target="zj5sX9OP2LHEYqVNq7Ng-141">
          <mxGeometry width="50" height="50" relative="1" as="geometry">
            <mxPoint x="-4" y="262" as="sourcePoint" />
            <mxPoint x="46" y="212" as="targetPoint" />
          </mxGeometry>
        </mxCell>
        <mxCell id="zj5sX9OP2LHEYqVNq7Ng-150" value="&lt;font style=&quot;font-size: 10px;&quot;&gt;&amp;lt;&amp;lt;include&amp;gt;&amp;gt;&lt;/font&gt;" style="text;html=1;align=center;verticalAlign=middle;whiteSpace=wrap;rounded=0;fontSize=16;" vertex="1" parent="zj5sX9OP2LHEYqVNq7Ng-140">
          <mxGeometry x="47" y="50" width="60" height="30" as="geometry" />
        </mxCell>
        <mxCell id="zj5sX9OP2LHEYqVNq7Ng-151" value="&lt;font style=&quot;font-size: 10px;&quot;&gt;&amp;lt;&amp;lt;include&amp;gt;&amp;gt;&lt;/font&gt;" style="text;html=1;align=center;verticalAlign=middle;whiteSpace=wrap;rounded=0;fontSize=16;" vertex="1" parent="zj5sX9OP2LHEYqVNq7Ng-140">
          <mxGeometry x="74" y="34" width="60" height="30" as="geometry" />
        </mxCell>
        <mxCell id="zj5sX9OP2LHEYqVNq7Ng-152" value="&lt;font style=&quot;font-size: 10px;&quot;&gt;&amp;lt;&amp;lt;include&amp;gt;&amp;gt;&lt;/font&gt;" style="text;html=1;align=center;verticalAlign=middle;whiteSpace=wrap;rounded=0;fontSize=16;" vertex="1" parent="zj5sX9OP2LHEYqVNq7Ng-140">
          <mxGeometry x="195" y="34" width="60" height="30" as="geometry" />
        </mxCell>
        <mxCell id="zj5sX9OP2LHEYqVNq7Ng-153" value="&lt;font style=&quot;font-size: 10px;&quot;&gt;&amp;lt;&amp;lt;include&amp;gt;&amp;gt;&lt;/font&gt;" style="text;html=1;align=center;verticalAlign=middle;whiteSpace=wrap;rounded=0;fontSize=16;" vertex="1" parent="zj5sX9OP2LHEYqVNq7Ng-140">
          <mxGeometry x="228" y="50" width="60" height="30" as="geometry" />
        </mxCell>
        <mxCell id="zj5sX9OP2LHEYqVNq7Ng-154" value="콘텐츠관리자" style="shape=umlActor;verticalLabelPosition=bottom;verticalAlign=top;html=1;outlineConnect=0;fillColor=#f8cecc;strokeColor=#b85450;" vertex="1" parent="1">
          <mxGeometry x="690" y="-49.5" width="30" height="60" as="geometry" />
        </mxCell>
        <mxCell id="zj5sX9OP2LHEYqVNq7Ng-155" value="회원/글 관리자" style="shape=umlActor;verticalLabelPosition=bottom;verticalAlign=top;html=1;outlineConnect=0;fillColor=#f8cecc;strokeColor=#b85450;" vertex="1" parent="1">
          <mxGeometry x="701" y="385" width="30" height="60" as="geometry" />
        </mxCell>
        <mxCell id="zj5sX9OP2LHEYqVNq7Ng-161" value="" style="group" vertex="1" connectable="0" parent="1">
          <mxGeometry x="25" y="140" width="425" height="226" as="geometry" />
        </mxCell>
        <mxCell id="zj5sX9OP2LHEYqVNq7Ng-61" value="상세 보기" style="ellipse;whiteSpace=wrap;html=1;" vertex="1" parent="zj5sX9OP2LHEYqVNq7Ng-161">
          <mxGeometry x="94.5" y="79" width="76" height="45" as="geometry" />
        </mxCell>
        <mxCell id="zj5sX9OP2LHEYqVNq7Ng-93" value="" style="group" vertex="1" connectable="0" parent="zj5sX9OP2LHEYqVNq7Ng-161">
          <mxGeometry x="181" width="244" height="215" as="geometry" />
        </mxCell>
        <mxCell id="zj5sX9OP2LHEYqVNq7Ng-12" value="&lt;font color=&quot;#cc0000&quot; style=&quot;font-size: 15px;&quot;&gt;&lt;b&gt;공지사항&lt;/b&gt;&lt;/font&gt;" style="ellipse;whiteSpace=wrap;html=1;" vertex="1" parent="zj5sX9OP2LHEYqVNq7Ng-93">
          <mxGeometry x="76" y="164" width="93" height="51" as="geometry" />
        </mxCell>
        <mxCell id="zj5sX9OP2LHEYqVNq7Ng-63" value="글 수정" style="ellipse;whiteSpace=wrap;html=1;" vertex="1" parent="zj5sX9OP2LHEYqVNq7Ng-93">
          <mxGeometry y="78" width="76" height="45" as="geometry" />
        </mxCell>
        <mxCell id="zj5sX9OP2LHEYqVNq7Ng-64" value="글 등록" style="ellipse;whiteSpace=wrap;html=1;" vertex="1" parent="zj5sX9OP2LHEYqVNq7Ng-93">
          <mxGeometry x="84" y="78" width="76" height="45" as="geometry" />
        </mxCell>
        <mxCell id="zj5sX9OP2LHEYqVNq7Ng-65" value="글 삭제" style="ellipse;whiteSpace=wrap;html=1;" vertex="1" parent="zj5sX9OP2LHEYqVNq7Ng-93">
          <mxGeometry x="168" y="78" width="76" height="45" as="geometry" />
        </mxCell>
        <mxCell id="zj5sX9OP2LHEYqVNq7Ng-66" value="&lt;font style=&quot;font-size: 15px;&quot; color=&quot;#0000cc&quot;&gt;&lt;b&gt;글 관리&lt;/b&gt;&lt;/font&gt;" style="ellipse;whiteSpace=wrap;html=1;fillColor=#f8cecc;strokeColor=#b85450;" vertex="1" parent="zj5sX9OP2LHEYqVNq7Ng-93">
          <mxGeometry x="84" width="76" height="45" as="geometry" />
        </mxCell>
        <mxCell id="zj5sX9OP2LHEYqVNq7Ng-67" value="" style="endArrow=classic;html=1;rounded=0;fontSize=12;startSize=8;endSize=8;curved=1;exitX=0.5;exitY=0;exitDx=0;exitDy=0;entryX=0.5;entryY=1;entryDx=0;entryDy=0;" edge="1" parent="zj5sX9OP2LHEYqVNq7Ng-93" source="zj5sX9OP2LHEYqVNq7Ng-63" target="zj5sX9OP2LHEYqVNq7Ng-66">
          <mxGeometry width="50" height="50" relative="1" as="geometry">
            <mxPoint x="-24" y="53" as="sourcePoint" />
            <mxPoint x="26" y="3" as="targetPoint" />
          </mxGeometry>
        </mxCell>
        <mxCell id="zj5sX9OP2LHEYqVNq7Ng-68" value="" style="endArrow=classic;html=1;rounded=0;fontSize=12;startSize=8;endSize=8;curved=1;exitX=0.5;exitY=0;exitDx=0;exitDy=0;entryX=0.5;entryY=1;entryDx=0;entryDy=0;" edge="1" parent="zj5sX9OP2LHEYqVNq7Ng-93" source="zj5sX9OP2LHEYqVNq7Ng-64" target="zj5sX9OP2LHEYqVNq7Ng-66">
          <mxGeometry width="50" height="50" relative="1" as="geometry">
            <mxPoint x="-58" y="223" as="sourcePoint" />
            <mxPoint x="-8" y="173" as="targetPoint" />
          </mxGeometry>
        </mxCell>
        <mxCell id="zj5sX9OP2LHEYqVNq7Ng-69" value="" style="endArrow=classic;html=1;rounded=0;fontSize=12;startSize=8;endSize=8;curved=1;entryX=0.5;entryY=1;entryDx=0;entryDy=0;exitX=0.5;exitY=0;exitDx=0;exitDy=0;" edge="1" parent="zj5sX9OP2LHEYqVNq7Ng-93" source="zj5sX9OP2LHEYqVNq7Ng-65" target="zj5sX9OP2LHEYqVNq7Ng-66">
          <mxGeometry width="50" height="50" relative="1" as="geometry">
            <mxPoint x="117" y="362" as="sourcePoint" />
            <mxPoint x="167" y="312" as="targetPoint" />
          </mxGeometry>
        </mxCell>
        <mxCell id="zj5sX9OP2LHEYqVNq7Ng-70" value="&lt;font style=&quot;font-size: 10px;&quot;&gt;&amp;lt;&amp;lt;extend&amp;gt;&amp;gt;&lt;/font&gt;" style="text;html=1;align=center;verticalAlign=middle;whiteSpace=wrap;rounded=0;fontSize=16;" vertex="1" parent="zj5sX9OP2LHEYqVNq7Ng-93">
          <mxGeometry x="34" y="34.5" width="60" height="30" as="geometry" />
        </mxCell>
        <mxCell id="zj5sX9OP2LHEYqVNq7Ng-71" value="&lt;font style=&quot;font-size: 10px;&quot;&gt;&amp;lt;&amp;lt;extend&amp;gt;&amp;gt;&lt;/font&gt;" style="text;html=1;align=center;verticalAlign=middle;whiteSpace=wrap;rounded=0;fontSize=16;" vertex="1" parent="zj5sX9OP2LHEYqVNq7Ng-93">
          <mxGeometry x="69" y="56" width="60" height="30" as="geometry" />
        </mxCell>
        <mxCell id="zj5sX9OP2LHEYqVNq7Ng-72" value="&lt;font style=&quot;font-size: 10px;&quot;&gt;&amp;lt;&amp;lt;extend&amp;gt;&amp;gt;&lt;/font&gt;" style="text;html=1;align=center;verticalAlign=middle;whiteSpace=wrap;rounded=0;fontSize=16;" vertex="1" parent="zj5sX9OP2LHEYqVNq7Ng-93">
          <mxGeometry x="151" y="34.5" width="60" height="30" as="geometry" />
        </mxCell>
        <mxCell id="zj5sX9OP2LHEYqVNq7Ng-73" value="" style="endArrow=classic;html=1;rounded=0;fontSize=12;startSize=8;endSize=8;curved=1;exitX=0.5;exitY=1;exitDx=0;exitDy=0;entryX=0.5;entryY=0;entryDx=0;entryDy=0;" edge="1" parent="zj5sX9OP2LHEYqVNq7Ng-93" source="zj5sX9OP2LHEYqVNq7Ng-63" target="zj5sX9OP2LHEYqVNq7Ng-12">
          <mxGeometry width="50" height="50" relative="1" as="geometry">
            <mxPoint x="-21" y="188" as="sourcePoint" />
            <mxPoint x="29" y="138" as="targetPoint" />
          </mxGeometry>
        </mxCell>
        <mxCell id="zj5sX9OP2LHEYqVNq7Ng-74" value="" style="endArrow=classic;html=1;rounded=0;fontSize=12;startSize=8;endSize=8;curved=1;exitX=0.5;exitY=1;exitDx=0;exitDy=0;entryX=0.5;entryY=0;entryDx=0;entryDy=0;" edge="1" parent="zj5sX9OP2LHEYqVNq7Ng-93" source="zj5sX9OP2LHEYqVNq7Ng-64" target="zj5sX9OP2LHEYqVNq7Ng-12">
          <mxGeometry width="50" height="50" relative="1" as="geometry">
            <mxPoint x="-72" y="196" as="sourcePoint" />
            <mxPoint x="-22" y="146" as="targetPoint" />
          </mxGeometry>
        </mxCell>
        <mxCell id="zj5sX9OP2LHEYqVNq7Ng-75" value="" style="endArrow=classic;html=1;rounded=0;fontSize=12;startSize=8;endSize=8;curved=1;exitX=0.5;exitY=1;exitDx=0;exitDy=0;entryX=0.5;entryY=0;entryDx=0;entryDy=0;" edge="1" parent="zj5sX9OP2LHEYqVNq7Ng-93" source="zj5sX9OP2LHEYqVNq7Ng-65" target="zj5sX9OP2LHEYqVNq7Ng-12">
          <mxGeometry width="50" height="50" relative="1" as="geometry">
            <mxPoint x="-42" y="173" as="sourcePoint" />
            <mxPoint x="8" y="123" as="targetPoint" />
          </mxGeometry>
        </mxCell>
        <mxCell id="zj5sX9OP2LHEYqVNq7Ng-90" value="&lt;font style=&quot;font-size: 10px;&quot;&gt;&amp;lt;&amp;lt;include&amp;gt;&amp;gt;&lt;/font&gt;" style="text;html=1;align=center;verticalAlign=middle;whiteSpace=wrap;rounded=0;fontSize=16;" vertex="1" parent="zj5sX9OP2LHEYqVNq7Ng-93">
          <mxGeometry x="6" y="117" width="60" height="30" as="geometry" />
        </mxCell>
        <mxCell id="zj5sX9OP2LHEYqVNq7Ng-91" value="&lt;font style=&quot;font-size: 10px;&quot;&gt;&amp;lt;&amp;lt;include&amp;gt;&amp;gt;&lt;/font&gt;" style="text;html=1;align=center;verticalAlign=middle;whiteSpace=wrap;rounded=0;fontSize=16;" vertex="1" parent="zj5sX9OP2LHEYqVNq7Ng-93">
          <mxGeometry x="64" y="117" width="60" height="30" as="geometry" />
        </mxCell>
        <mxCell id="zj5sX9OP2LHEYqVNq7Ng-92" value="&lt;font style=&quot;font-size: 10px;&quot;&gt;&amp;lt;&amp;lt;include&amp;gt;&amp;gt;&lt;/font&gt;" style="text;html=1;align=center;verticalAlign=middle;whiteSpace=wrap;rounded=0;fontSize=16;" vertex="1" parent="zj5sX9OP2LHEYqVNq7Ng-93">
          <mxGeometry x="154" y="134" width="60" height="30" as="geometry" />
        </mxCell>
        <mxCell id="zj5sX9OP2LHEYqVNq7Ng-62" value="목록 보기" style="ellipse;whiteSpace=wrap;html=1;" vertex="1" parent="zj5sX9OP2LHEYqVNq7Ng-161">
          <mxGeometry x="6" y="79" width="76" height="45" as="geometry" />
        </mxCell>
        <mxCell id="zj5sX9OP2LHEYqVNq7Ng-156" value="" style="endArrow=classic;html=1;rounded=0;fontSize=12;startSize=8;endSize=8;curved=1;exitX=0.5;exitY=1;exitDx=0;exitDy=0;entryX=0.5;entryY=0;entryDx=0;entryDy=0;" edge="1" parent="zj5sX9OP2LHEYqVNq7Ng-161" source="zj5sX9OP2LHEYqVNq7Ng-62" target="zj5sX9OP2LHEYqVNq7Ng-12">
          <mxGeometry width="50" height="50" relative="1" as="geometry">
            <mxPoint x="-58" y="-64" as="sourcePoint" />
            <mxPoint x="-8" y="-114" as="targetPoint" />
          </mxGeometry>
        </mxCell>
        <mxCell id="zj5sX9OP2LHEYqVNq7Ng-157" value="" style="endArrow=classic;html=1;rounded=0;fontSize=12;startSize=8;endSize=8;curved=1;exitX=0.5;exitY=1;exitDx=0;exitDy=0;entryX=0.5;entryY=0;entryDx=0;entryDy=0;" edge="1" parent="zj5sX9OP2LHEYqVNq7Ng-161" source="zj5sX9OP2LHEYqVNq7Ng-61" target="zj5sX9OP2LHEYqVNq7Ng-12">
          <mxGeometry width="50" height="50" relative="1" as="geometry">
            <mxPoint x="-36" y="-27" as="sourcePoint" />
            <mxPoint x="14" y="-77" as="targetPoint" />
          </mxGeometry>
        </mxCell>
        <mxCell id="zj5sX9OP2LHEYqVNq7Ng-159" value="&lt;font style=&quot;font-size: 10px;&quot;&gt;&amp;lt;&amp;lt;include&amp;gt;&amp;gt;&lt;/font&gt;" style="text;html=1;align=center;verticalAlign=middle;whiteSpace=wrap;rounded=0;fontSize=16;" vertex="1" parent="zj5sX9OP2LHEYqVNq7Ng-161">
          <mxGeometry x="94.5" y="113" width="60" height="30" as="geometry" />
        </mxCell>
        <mxCell id="zj5sX9OP2LHEYqVNq7Ng-160" value="&lt;font style=&quot;font-size: 10px;&quot;&gt;&amp;lt;&amp;lt;include&amp;gt;&amp;gt;&lt;/font&gt;" style="text;html=1;align=center;verticalAlign=middle;whiteSpace=wrap;rounded=0;fontSize=16;" vertex="1" parent="zj5sX9OP2LHEYqVNq7Ng-161">
          <mxGeometry x="114" y="131" width="60" height="30" as="geometry" />
        </mxCell>
        <mxCell id="zj5sX9OP2LHEYqVNq7Ng-199" value="" style="group" vertex="1" connectable="0" parent="1">
          <mxGeometry x="-39" y="661" width="519" height="148.5" as="geometry" />
        </mxCell>
        <mxCell id="zj5sX9OP2LHEYqVNq7Ng-180" value="" style="group" vertex="1" connectable="0" parent="zj5sX9OP2LHEYqVNq7Ng-199">
          <mxGeometry width="356" height="148" as="geometry" />
        </mxCell>
        <mxCell id="zj5sX9OP2LHEYqVNq7Ng-15" value="&lt;font color=&quot;#cc0000&quot;&gt;&lt;span style=&quot;font-size: 15px;&quot;&gt;&lt;b&gt;QnA&lt;/b&gt;&lt;/span&gt;&lt;/font&gt;" style="ellipse;whiteSpace=wrap;html=1;" vertex="1" parent="zj5sX9OP2LHEYqVNq7Ng-180">
          <mxGeometry x="210" y="49" width="93" height="51" as="geometry" />
        </mxCell>
        <mxCell id="zj5sX9OP2LHEYqVNq7Ng-162" value="질문 등록" style="ellipse;whiteSpace=wrap;html=1;" vertex="1" parent="zj5sX9OP2LHEYqVNq7Ng-180">
          <mxGeometry x="105" width="76" height="45" as="geometry" />
        </mxCell>
        <mxCell id="zj5sX9OP2LHEYqVNq7Ng-163" value="질문 수정" style="ellipse;whiteSpace=wrap;html=1;" vertex="1" parent="zj5sX9OP2LHEYqVNq7Ng-180">
          <mxGeometry x="105" y="52" width="76" height="45" as="geometry" />
        </mxCell>
        <mxCell id="zj5sX9OP2LHEYqVNq7Ng-164" value="질문 삭제" style="ellipse;whiteSpace=wrap;html=1;" vertex="1" parent="zj5sX9OP2LHEYqVNq7Ng-180">
          <mxGeometry x="105" y="103" width="76" height="45" as="geometry" />
        </mxCell>
        <mxCell id="zj5sX9OP2LHEYqVNq7Ng-165" value="" style="endArrow=classic;html=1;rounded=0;fontSize=12;startSize=8;endSize=8;curved=1;exitX=1;exitY=0.5;exitDx=0;exitDy=0;entryX=0;entryY=0.5;entryDx=0;entryDy=0;" edge="1" parent="zj5sX9OP2LHEYqVNq7Ng-180" source="zj5sX9OP2LHEYqVNq7Ng-162" target="zj5sX9OP2LHEYqVNq7Ng-15">
          <mxGeometry width="50" height="50" relative="1" as="geometry">
            <mxPoint x="213" y="26" as="sourcePoint" />
            <mxPoint x="263" y="-24" as="targetPoint" />
          </mxGeometry>
        </mxCell>
        <mxCell id="zj5sX9OP2LHEYqVNq7Ng-191" value="Text" style="edgeLabel;html=1;align=center;verticalAlign=middle;resizable=0;points=[];fontSize=12;" vertex="1" connectable="0" parent="zj5sX9OP2LHEYqVNq7Ng-165">
          <mxGeometry x="0.6395" relative="1" as="geometry">
            <mxPoint as="offset" />
          </mxGeometry>
        </mxCell>
        <mxCell id="zj5sX9OP2LHEYqVNq7Ng-166" value="" style="endArrow=classic;html=1;rounded=0;fontSize=12;startSize=8;endSize=8;curved=1;exitX=1;exitY=0.5;exitDx=0;exitDy=0;entryX=0;entryY=0.5;entryDx=0;entryDy=0;" edge="1" parent="zj5sX9OP2LHEYqVNq7Ng-180" source="zj5sX9OP2LHEYqVNq7Ng-163" target="zj5sX9OP2LHEYqVNq7Ng-15">
          <mxGeometry width="50" height="50" relative="1" as="geometry">
            <mxPoint x="219" y="26" as="sourcePoint" />
            <mxPoint x="269" y="-24" as="targetPoint" />
          </mxGeometry>
        </mxCell>
        <mxCell id="zj5sX9OP2LHEYqVNq7Ng-167" value="" style="endArrow=classic;html=1;rounded=0;fontSize=12;startSize=8;endSize=8;curved=1;exitX=1;exitY=0.5;exitDx=0;exitDy=0;entryX=0;entryY=0.5;entryDx=0;entryDy=0;" edge="1" parent="zj5sX9OP2LHEYqVNq7Ng-180" source="zj5sX9OP2LHEYqVNq7Ng-164" target="zj5sX9OP2LHEYqVNq7Ng-15">
          <mxGeometry width="50" height="50" relative="1" as="geometry">
            <mxPoint x="300" y="51" as="sourcePoint" />
            <mxPoint x="350" y="1" as="targetPoint" />
          </mxGeometry>
        </mxCell>
        <mxCell id="zj5sX9OP2LHEYqVNq7Ng-168" value="&lt;font style=&quot;font-size: 15px;&quot; color=&quot;#0000cc&quot;&gt;&lt;b&gt;질문&lt;/b&gt;&lt;/font&gt;" style="ellipse;whiteSpace=wrap;html=1;fillColor=#dae8fc;strokeColor=#6c8ebf;" vertex="1" parent="zj5sX9OP2LHEYqVNq7Ng-180">
          <mxGeometry y="52" width="76" height="45" as="geometry" />
        </mxCell>
        <mxCell id="zj5sX9OP2LHEYqVNq7Ng-169" value="" style="endArrow=classic;html=1;rounded=0;fontSize=12;startSize=8;endSize=8;curved=1;exitX=0;exitY=0.5;exitDx=0;exitDy=0;entryX=1;entryY=0.5;entryDx=0;entryDy=0;" edge="1" parent="zj5sX9OP2LHEYqVNq7Ng-180" source="zj5sX9OP2LHEYqVNq7Ng-162" target="zj5sX9OP2LHEYqVNq7Ng-168">
          <mxGeometry width="50" height="50" relative="1" as="geometry">
            <mxPoint x="90" y="20" as="sourcePoint" />
            <mxPoint x="140" y="-30" as="targetPoint" />
          </mxGeometry>
        </mxCell>
        <mxCell id="zj5sX9OP2LHEYqVNq7Ng-172" value="" style="endArrow=classic;html=1;rounded=0;fontSize=12;startSize=8;endSize=8;curved=1;exitX=0;exitY=0.5;exitDx=0;exitDy=0;entryX=1;entryY=0.5;entryDx=0;entryDy=0;" edge="1" parent="zj5sX9OP2LHEYqVNq7Ng-180" source="zj5sX9OP2LHEYqVNq7Ng-163" target="zj5sX9OP2LHEYqVNq7Ng-168">
          <mxGeometry width="50" height="50" relative="1" as="geometry">
            <mxPoint x="261" y="36" as="sourcePoint" />
            <mxPoint x="311" y="-14" as="targetPoint" />
          </mxGeometry>
        </mxCell>
        <mxCell id="zj5sX9OP2LHEYqVNq7Ng-173" value="" style="endArrow=classic;html=1;rounded=0;fontSize=12;startSize=8;endSize=8;curved=1;exitX=0;exitY=0.5;exitDx=0;exitDy=0;entryX=1;entryY=0.5;entryDx=0;entryDy=0;" edge="1" parent="zj5sX9OP2LHEYqVNq7Ng-180" source="zj5sX9OP2LHEYqVNq7Ng-164" target="zj5sX9OP2LHEYqVNq7Ng-168">
          <mxGeometry width="50" height="50" relative="1" as="geometry">
            <mxPoint x="430" y="188" as="sourcePoint" />
            <mxPoint x="480" y="138" as="targetPoint" />
          </mxGeometry>
        </mxCell>
        <mxCell id="zj5sX9OP2LHEYqVNq7Ng-174" value="&lt;font style=&quot;font-size: 10px;&quot;&gt;&amp;lt;&amp;lt;extend&amp;gt;&amp;gt;&lt;/font&gt;" style="text;html=1;align=center;verticalAlign=middle;whiteSpace=wrap;rounded=0;fontSize=16;" vertex="1" parent="zj5sX9OP2LHEYqVNq7Ng-180">
          <mxGeometry x="46" y="22" width="60" height="30" as="geometry" />
        </mxCell>
        <mxCell id="zj5sX9OP2LHEYqVNq7Ng-175" value="&lt;font style=&quot;font-size: 10px;&quot;&gt;&amp;lt;&amp;lt;extend&amp;gt;&amp;gt;&lt;/font&gt;" style="text;html=1;align=center;verticalAlign=middle;whiteSpace=wrap;rounded=0;fontSize=16;" vertex="1" parent="zj5sX9OP2LHEYqVNq7Ng-180">
          <mxGeometry x="67" y="70" width="60" height="30" as="geometry" />
        </mxCell>
        <mxCell id="zj5sX9OP2LHEYqVNq7Ng-176" value="&lt;font style=&quot;font-size: 10px;&quot;&gt;&amp;lt;&amp;lt;extend&amp;gt;&amp;gt;&lt;/font&gt;" style="text;html=1;align=center;verticalAlign=middle;whiteSpace=wrap;rounded=0;fontSize=16;" vertex="1" parent="zj5sX9OP2LHEYqVNq7Ng-180">
          <mxGeometry x="43" y="105" width="60" height="30" as="geometry" />
        </mxCell>
        <mxCell id="zj5sX9OP2LHEYqVNq7Ng-178" value="&lt;font style=&quot;font-size: 10px;&quot;&gt;&amp;lt;&amp;lt;include&amp;gt;&amp;gt;&lt;/font&gt;" style="text;html=1;align=center;verticalAlign=middle;whiteSpace=wrap;rounded=0;fontSize=16;" vertex="1" parent="zj5sX9OP2LHEYqVNq7Ng-180">
          <mxGeometry x="155" y="75" width="60" height="30" as="geometry" />
        </mxCell>
        <mxCell id="zj5sX9OP2LHEYqVNq7Ng-179" value="&lt;font style=&quot;font-size: 10px;&quot;&gt;&amp;lt;&amp;lt;include&amp;gt;&amp;gt;&lt;/font&gt;" style="text;html=1;align=center;verticalAlign=middle;whiteSpace=wrap;rounded=0;fontSize=16;" vertex="1" parent="zj5sX9OP2LHEYqVNq7Ng-180">
          <mxGeometry x="184" y="103" width="60" height="30" as="geometry" />
        </mxCell>
        <mxCell id="zj5sX9OP2LHEYqVNq7Ng-177" value="&lt;font style=&quot;font-size: 10px;&quot;&gt;&amp;lt;&amp;lt;include&amp;gt;&amp;gt;&lt;/font&gt;" style="text;html=1;align=center;verticalAlign=middle;whiteSpace=wrap;rounded=0;fontSize=16;" vertex="1" parent="zj5sX9OP2LHEYqVNq7Ng-180">
          <mxGeometry x="184" y="22" width="60" height="30" as="geometry" />
        </mxCell>
        <mxCell id="zj5sX9OP2LHEYqVNq7Ng-188" value="&lt;font style=&quot;font-size: 10px;&quot;&gt;&amp;lt;&amp;lt;include&amp;gt;&amp;gt;&lt;/font&gt;" style="text;html=1;align=center;verticalAlign=middle;whiteSpace=wrap;rounded=0;fontSize=16;" vertex="1" parent="zj5sX9OP2LHEYqVNq7Ng-180">
          <mxGeometry x="269" y="22" width="60" height="30" as="geometry" />
        </mxCell>
        <mxCell id="zj5sX9OP2LHEYqVNq7Ng-189" value="&lt;font style=&quot;font-size: 10px;&quot;&gt;&amp;lt;&amp;lt;include&amp;gt;&amp;gt;&lt;/font&gt;" style="text;html=1;align=center;verticalAlign=middle;whiteSpace=wrap;rounded=0;fontSize=16;" vertex="1" parent="zj5sX9OP2LHEYqVNq7Ng-180">
          <mxGeometry x="292" y="75" width="60" height="30" as="geometry" />
        </mxCell>
        <mxCell id="zj5sX9OP2LHEYqVNq7Ng-190" value="&lt;font style=&quot;font-size: 10px;&quot;&gt;&amp;lt;&amp;lt;include&amp;gt;&amp;gt;&lt;/font&gt;" style="text;html=1;align=center;verticalAlign=middle;whiteSpace=wrap;rounded=0;fontSize=16;" vertex="1" parent="zj5sX9OP2LHEYqVNq7Ng-180">
          <mxGeometry x="273" y="105" width="60" height="30" as="geometry" />
        </mxCell>
        <mxCell id="zj5sX9OP2LHEYqVNq7Ng-182" value="&lt;b&gt;&lt;font color=&quot;#0000ff&quot;&gt;답변 수정&lt;/font&gt;&lt;/b&gt;" style="ellipse;whiteSpace=wrap;html=1;" vertex="1" parent="zj5sX9OP2LHEYqVNq7Ng-199">
          <mxGeometry x="331" y="0.5" width="76" height="45" as="geometry" />
        </mxCell>
        <mxCell id="zj5sX9OP2LHEYqVNq7Ng-183" value="&lt;b&gt;&lt;font color=&quot;#0000ff&quot;&gt;답변 등록&lt;/font&gt;&lt;/b&gt;" style="ellipse;whiteSpace=wrap;html=1;" vertex="1" parent="zj5sX9OP2LHEYqVNq7Ng-199">
          <mxGeometry x="331" y="52.5" width="76" height="45" as="geometry" />
        </mxCell>
        <mxCell id="zj5sX9OP2LHEYqVNq7Ng-184" value="&lt;b&gt;&lt;font color=&quot;#0000ff&quot;&gt;답변 삭제&lt;/font&gt;&lt;/b&gt;" style="ellipse;whiteSpace=wrap;html=1;" vertex="1" parent="zj5sX9OP2LHEYqVNq7Ng-199">
          <mxGeometry x="331" y="103.5" width="76" height="45" as="geometry" />
        </mxCell>
        <mxCell id="zj5sX9OP2LHEYqVNq7Ng-185" value="" style="endArrow=classic;html=1;rounded=0;fontSize=12;startSize=8;endSize=8;curved=1;exitX=0;exitY=0.5;exitDx=0;exitDy=0;entryX=1;entryY=0.5;entryDx=0;entryDy=0;" edge="1" parent="zj5sX9OP2LHEYqVNq7Ng-199" source="zj5sX9OP2LHEYqVNq7Ng-182" target="zj5sX9OP2LHEYqVNq7Ng-15">
          <mxGeometry width="50" height="50" relative="1" as="geometry">
            <mxPoint x="286" y="248" as="sourcePoint" />
            <mxPoint x="336" y="198" as="targetPoint" />
          </mxGeometry>
        </mxCell>
        <mxCell id="zj5sX9OP2LHEYqVNq7Ng-186" value="" style="endArrow=classic;html=1;rounded=0;fontSize=12;startSize=8;endSize=8;curved=1;exitX=0;exitY=0.5;exitDx=0;exitDy=0;entryX=1;entryY=0.5;entryDx=0;entryDy=0;" edge="1" parent="zj5sX9OP2LHEYqVNq7Ng-199" source="zj5sX9OP2LHEYqVNq7Ng-183" target="zj5sX9OP2LHEYqVNq7Ng-15">
          <mxGeometry width="50" height="50" relative="1" as="geometry">
            <mxPoint x="321" y="292" as="sourcePoint" />
            <mxPoint x="371" y="242" as="targetPoint" />
          </mxGeometry>
        </mxCell>
        <mxCell id="zj5sX9OP2LHEYqVNq7Ng-187" value="" style="endArrow=classic;html=1;rounded=0;fontSize=12;startSize=8;endSize=8;curved=1;exitX=0;exitY=0.5;exitDx=0;exitDy=0;entryX=1;entryY=0.5;entryDx=0;entryDy=0;" edge="1" parent="zj5sX9OP2LHEYqVNq7Ng-199" source="zj5sX9OP2LHEYqVNq7Ng-184" target="zj5sX9OP2LHEYqVNq7Ng-15">
          <mxGeometry width="50" height="50" relative="1" as="geometry">
            <mxPoint x="248" y="236" as="sourcePoint" />
            <mxPoint x="298" y="186" as="targetPoint" />
          </mxGeometry>
        </mxCell>
        <mxCell id="zj5sX9OP2LHEYqVNq7Ng-192" value="&lt;font color=&quot;#0000cc&quot;&gt;&lt;span style=&quot;font-size: 15px;&quot;&gt;&lt;b&gt;QnA 관리&lt;/b&gt;&lt;/span&gt;&lt;/font&gt;" style="ellipse;whiteSpace=wrap;html=1;fillColor=#f8cecc;strokeColor=#b85450;" vertex="1" parent="zj5sX9OP2LHEYqVNq7Ng-199">
          <mxGeometry x="443" y="51.5" width="76" height="45" as="geometry" />
        </mxCell>
        <mxCell id="zj5sX9OP2LHEYqVNq7Ng-193" value="" style="endArrow=classic;html=1;rounded=0;fontSize=12;startSize=8;endSize=8;curved=1;exitX=1;exitY=0.5;exitDx=0;exitDy=0;entryX=0;entryY=0.5;entryDx=0;entryDy=0;" edge="1" parent="zj5sX9OP2LHEYqVNq7Ng-199" source="zj5sX9OP2LHEYqVNq7Ng-183" target="zj5sX9OP2LHEYqVNq7Ng-192">
          <mxGeometry width="50" height="50" relative="1" as="geometry">
            <mxPoint x="367" y="241" as="sourcePoint" />
            <mxPoint x="417" y="191" as="targetPoint" />
          </mxGeometry>
        </mxCell>
        <mxCell id="zj5sX9OP2LHEYqVNq7Ng-194" value="" style="endArrow=classic;html=1;rounded=0;fontSize=12;startSize=8;endSize=8;curved=1;exitX=1;exitY=0.5;exitDx=0;exitDy=0;entryX=0;entryY=0.5;entryDx=0;entryDy=0;" edge="1" parent="zj5sX9OP2LHEYqVNq7Ng-199" source="zj5sX9OP2LHEYqVNq7Ng-184" target="zj5sX9OP2LHEYqVNq7Ng-192">
          <mxGeometry width="50" height="50" relative="1" as="geometry">
            <mxPoint x="291" y="216" as="sourcePoint" />
            <mxPoint x="341" y="166" as="targetPoint" />
          </mxGeometry>
        </mxCell>
        <mxCell id="zj5sX9OP2LHEYqVNq7Ng-195" value="" style="endArrow=classic;html=1;rounded=0;fontSize=12;startSize=8;endSize=8;curved=1;exitX=1;exitY=0.5;exitDx=0;exitDy=0;entryX=0;entryY=0.5;entryDx=0;entryDy=0;" edge="1" parent="zj5sX9OP2LHEYqVNq7Ng-199" source="zj5sX9OP2LHEYqVNq7Ng-182" target="zj5sX9OP2LHEYqVNq7Ng-192">
          <mxGeometry width="50" height="50" relative="1" as="geometry">
            <mxPoint x="318" y="264" as="sourcePoint" />
            <mxPoint x="368" y="214" as="targetPoint" />
          </mxGeometry>
        </mxCell>
        <mxCell id="zj5sX9OP2LHEYqVNq7Ng-196" value="&lt;font style=&quot;font-size: 10px;&quot;&gt;&amp;lt;&amp;lt;extend&amp;gt;&amp;gt;&lt;/font&gt;" style="text;html=1;align=center;verticalAlign=middle;whiteSpace=wrap;rounded=0;fontSize=16;" vertex="1" parent="zj5sX9OP2LHEYqVNq7Ng-199">
          <mxGeometry x="410" y="21.5" width="60" height="30" as="geometry" />
        </mxCell>
        <mxCell id="zj5sX9OP2LHEYqVNq7Ng-197" value="&lt;font style=&quot;font-size: 10px;&quot;&gt;&amp;lt;&amp;lt;extend&amp;gt;&amp;gt;&lt;/font&gt;" style="text;html=1;align=center;verticalAlign=middle;whiteSpace=wrap;rounded=0;fontSize=16;" vertex="1" parent="zj5sX9OP2LHEYqVNq7Ng-199">
          <mxGeometry x="412" y="106" width="60" height="30" as="geometry" />
        </mxCell>
        <mxCell id="zj5sX9OP2LHEYqVNq7Ng-198" value="&lt;font style=&quot;font-size: 10px;&quot;&gt;&amp;lt;&amp;lt;extend&amp;gt;&amp;gt;&lt;/font&gt;" style="text;html=1;align=center;verticalAlign=middle;whiteSpace=wrap;rounded=0;fontSize=16;" vertex="1" parent="zj5sX9OP2LHEYqVNq7Ng-199">
          <mxGeometry x="391.5" y="72" width="60" height="30" as="geometry" />
        </mxCell>
        <mxCell id="zj5sX9OP2LHEYqVNq7Ng-242" value="" style="group" vertex="1" connectable="0" parent="1">
          <mxGeometry x="5" y="316" width="498" height="205" as="geometry" />
        </mxCell>
        <mxCell id="zj5sX9OP2LHEYqVNq7Ng-227" value="" style="group" vertex="1" connectable="0" parent="zj5sX9OP2LHEYqVNq7Ng-242">
          <mxGeometry x="155" y="53" width="343" height="96" as="geometry" />
        </mxCell>
        <mxCell id="zj5sX9OP2LHEYqVNq7Ng-14" value="&lt;font color=&quot;#cc0000&quot;&gt;&lt;span style=&quot;font-size: 15px;&quot;&gt;&lt;b&gt;회원&lt;/b&gt;&lt;/span&gt;&lt;/font&gt;" style="ellipse;whiteSpace=wrap;html=1;" vertex="1" parent="zj5sX9OP2LHEYqVNq7Ng-227">
          <mxGeometry y="24" width="93" height="51" as="geometry" />
        </mxCell>
        <mxCell id="zj5sX9OP2LHEYqVNq7Ng-216" value="목록 보기" style="ellipse;whiteSpace=wrap;html=1;" vertex="1" parent="zj5sX9OP2LHEYqVNq7Ng-227">
          <mxGeometry x="140" width="76" height="45" as="geometry" />
        </mxCell>
        <mxCell id="zj5sX9OP2LHEYqVNq7Ng-217" value="상세 정보" style="ellipse;whiteSpace=wrap;html=1;" vertex="1" parent="zj5sX9OP2LHEYqVNq7Ng-227">
          <mxGeometry x="140" y="51" width="76" height="45" as="geometry" />
        </mxCell>
        <mxCell id="zj5sX9OP2LHEYqVNq7Ng-218" value="" style="endArrow=classic;html=1;rounded=0;fontSize=12;startSize=8;endSize=8;curved=1;exitX=0;exitY=0.5;exitDx=0;exitDy=0;entryX=1;entryY=0.5;entryDx=0;entryDy=0;" edge="1" parent="zj5sX9OP2LHEYqVNq7Ng-227" source="zj5sX9OP2LHEYqVNq7Ng-216" target="zj5sX9OP2LHEYqVNq7Ng-14">
          <mxGeometry width="50" height="50" relative="1" as="geometry">
            <mxPoint x="70" y="154" as="sourcePoint" />
            <mxPoint x="120" y="104" as="targetPoint" />
          </mxGeometry>
        </mxCell>
        <mxCell id="zj5sX9OP2LHEYqVNq7Ng-219" value="" style="endArrow=classic;html=1;rounded=0;fontSize=12;startSize=8;endSize=8;curved=1;exitX=0;exitY=0.5;exitDx=0;exitDy=0;entryX=1;entryY=0.5;entryDx=0;entryDy=0;" edge="1" parent="zj5sX9OP2LHEYqVNq7Ng-227" source="zj5sX9OP2LHEYqVNq7Ng-217" target="zj5sX9OP2LHEYqVNq7Ng-14">
          <mxGeometry width="50" height="50" relative="1" as="geometry">
            <mxPoint x="-207" y="114" as="sourcePoint" />
            <mxPoint x="-157" y="64" as="targetPoint" />
          </mxGeometry>
        </mxCell>
        <mxCell id="zj5sX9OP2LHEYqVNq7Ng-220" value="&lt;font style=&quot;font-size: 15px;&quot; color=&quot;#0000cc&quot;&gt;&lt;b&gt;회원 관리&lt;/b&gt;&lt;/font&gt;" style="ellipse;whiteSpace=wrap;html=1;fillColor=#f8cecc;strokeColor=#b85450;" vertex="1" parent="zj5sX9OP2LHEYqVNq7Ng-227">
          <mxGeometry x="267" y="27" width="76" height="45" as="geometry" />
        </mxCell>
        <mxCell id="zj5sX9OP2LHEYqVNq7Ng-221" value="" style="endArrow=classic;html=1;rounded=0;fontSize=12;startSize=8;endSize=8;curved=1;exitX=1;exitY=0.5;exitDx=0;exitDy=0;entryX=0;entryY=0.5;entryDx=0;entryDy=0;" edge="1" parent="zj5sX9OP2LHEYqVNq7Ng-227" source="zj5sX9OP2LHEYqVNq7Ng-216" target="zj5sX9OP2LHEYqVNq7Ng-220">
          <mxGeometry width="50" height="50" relative="1" as="geometry">
            <mxPoint x="7" y="-207" as="sourcePoint" />
            <mxPoint x="57" y="-257" as="targetPoint" />
          </mxGeometry>
        </mxCell>
        <mxCell id="zj5sX9OP2LHEYqVNq7Ng-222" value="" style="endArrow=classic;html=1;rounded=0;fontSize=12;startSize=8;endSize=8;curved=1;exitX=1;exitY=0.5;exitDx=0;exitDy=0;entryX=0;entryY=0.5;entryDx=0;entryDy=0;" edge="1" parent="zj5sX9OP2LHEYqVNq7Ng-227" source="zj5sX9OP2LHEYqVNq7Ng-217" target="zj5sX9OP2LHEYqVNq7Ng-220">
          <mxGeometry width="50" height="50" relative="1" as="geometry">
            <mxPoint x="-36" y="64" as="sourcePoint" />
            <mxPoint x="14" y="14" as="targetPoint" />
          </mxGeometry>
        </mxCell>
        <mxCell id="zj5sX9OP2LHEYqVNq7Ng-223" value="&lt;font style=&quot;font-size: 10px;&quot;&gt;&amp;lt;&amp;lt;include&amp;gt;&amp;gt;&lt;/font&gt;" style="text;html=1;align=center;verticalAlign=middle;whiteSpace=wrap;rounded=0;fontSize=16;" vertex="1" parent="zj5sX9OP2LHEYqVNq7Ng-227">
          <mxGeometry x="80" y="5" width="60" height="30" as="geometry" />
        </mxCell>
        <mxCell id="zj5sX9OP2LHEYqVNq7Ng-224" value="&lt;font style=&quot;font-size: 10px;&quot;&gt;&amp;lt;&amp;lt;include&amp;gt;&amp;gt;&lt;/font&gt;" style="text;html=1;align=center;verticalAlign=middle;whiteSpace=wrap;rounded=0;fontSize=16;" vertex="1" parent="zj5sX9OP2LHEYqVNq7Ng-227">
          <mxGeometry x="80" y="55" width="60" height="30" as="geometry" />
        </mxCell>
        <mxCell id="zj5sX9OP2LHEYqVNq7Ng-225" value="&lt;font style=&quot;font-size: 10px;&quot;&gt;&amp;lt;&amp;lt;extend&amp;gt;&amp;gt;&lt;/font&gt;" style="text;html=1;align=center;verticalAlign=middle;whiteSpace=wrap;rounded=0;fontSize=16;" vertex="1" parent="zj5sX9OP2LHEYqVNq7Ng-227">
          <mxGeometry x="223" y="7.5" width="60" height="30" as="geometry" />
        </mxCell>
        <mxCell id="zj5sX9OP2LHEYqVNq7Ng-226" value="&lt;font style=&quot;font-size: 10px;&quot;&gt;&amp;lt;&amp;lt;extend&amp;gt;&amp;gt;&lt;/font&gt;" style="text;html=1;align=center;verticalAlign=middle;whiteSpace=wrap;rounded=0;fontSize=16;" vertex="1" parent="zj5sX9OP2LHEYqVNq7Ng-227">
          <mxGeometry x="223" y="55" width="60" height="30" as="geometry" />
        </mxCell>
        <mxCell id="zj5sX9OP2LHEYqVNq7Ng-228" value="정보 수정" style="ellipse;whiteSpace=wrap;html=1;" vertex="1" parent="zj5sX9OP2LHEYqVNq7Ng-242">
          <mxGeometry y="106" width="76" height="45" as="geometry" />
        </mxCell>
        <mxCell id="zj5sX9OP2LHEYqVNq7Ng-229" value="&lt;b&gt;로그인&lt;/b&gt;" style="ellipse;whiteSpace=wrap;html=1;" vertex="1" parent="zj5sX9OP2LHEYqVNq7Ng-242">
          <mxGeometry y="160" width="76" height="45" as="geometry" />
        </mxCell>
        <mxCell id="zj5sX9OP2LHEYqVNq7Ng-230" value="탈퇴" style="ellipse;whiteSpace=wrap;html=1;" vertex="1" parent="zj5sX9OP2LHEYqVNq7Ng-242">
          <mxGeometry width="76" height="45" as="geometry" />
        </mxCell>
        <mxCell id="zj5sX9OP2LHEYqVNq7Ng-231" value="&lt;b&gt;회원가입&lt;/b&gt;" style="ellipse;whiteSpace=wrap;html=1;" vertex="1" parent="zj5sX9OP2LHEYqVNq7Ng-242">
          <mxGeometry y="53" width="76" height="45" as="geometry" />
        </mxCell>
        <mxCell id="zj5sX9OP2LHEYqVNq7Ng-233" value="" style="endArrow=classic;html=1;rounded=0;fontSize=12;startSize=8;endSize=8;curved=1;exitX=1;exitY=0.5;exitDx=0;exitDy=0;entryX=0;entryY=0.5;entryDx=0;entryDy=0;" edge="1" parent="zj5sX9OP2LHEYqVNq7Ng-242" source="zj5sX9OP2LHEYqVNq7Ng-231" target="zj5sX9OP2LHEYqVNq7Ng-14">
          <mxGeometry width="50" height="50" relative="1" as="geometry">
            <mxPoint x="45" y="252" as="sourcePoint" />
            <mxPoint x="95" y="202" as="targetPoint" />
          </mxGeometry>
        </mxCell>
        <mxCell id="zj5sX9OP2LHEYqVNq7Ng-235" value="" style="endArrow=classic;html=1;rounded=0;fontSize=12;startSize=8;endSize=8;curved=1;exitX=1;exitY=0.5;exitDx=0;exitDy=0;entryX=0;entryY=0.5;entryDx=0;entryDy=0;" edge="1" parent="zj5sX9OP2LHEYqVNq7Ng-242" source="zj5sX9OP2LHEYqVNq7Ng-229" target="zj5sX9OP2LHEYqVNq7Ng-14">
          <mxGeometry width="50" height="50" relative="1" as="geometry">
            <mxPoint x="159" y="318" as="sourcePoint" />
            <mxPoint x="209" y="268" as="targetPoint" />
          </mxGeometry>
        </mxCell>
        <mxCell id="zj5sX9OP2LHEYqVNq7Ng-236" value="" style="endArrow=classic;html=1;rounded=0;fontSize=12;startSize=8;endSize=8;curved=1;exitX=0;exitY=0.5;exitDx=0;exitDy=0;entryX=1;entryY=0.5;entryDx=0;entryDy=0;" edge="1" parent="zj5sX9OP2LHEYqVNq7Ng-242" source="zj5sX9OP2LHEYqVNq7Ng-14" target="zj5sX9OP2LHEYqVNq7Ng-228">
          <mxGeometry width="50" height="50" relative="1" as="geometry">
            <mxPoint x="-118" y="134" as="sourcePoint" />
            <mxPoint x="-68" y="84" as="targetPoint" />
          </mxGeometry>
        </mxCell>
        <mxCell id="zj5sX9OP2LHEYqVNq7Ng-237" value="" style="endArrow=classic;html=1;rounded=0;fontSize=12;startSize=8;endSize=8;curved=1;exitX=0;exitY=0.5;exitDx=0;exitDy=0;entryX=1;entryY=0.5;entryDx=0;entryDy=0;" edge="1" parent="zj5sX9OP2LHEYqVNq7Ng-242" source="zj5sX9OP2LHEYqVNq7Ng-14" target="zj5sX9OP2LHEYqVNq7Ng-230">
          <mxGeometry width="50" height="50" relative="1" as="geometry">
            <mxPoint x="53" y="-141" as="sourcePoint" />
            <mxPoint x="103" y="-191" as="targetPoint" />
          </mxGeometry>
        </mxCell>
        <mxCell id="zj5sX9OP2LHEYqVNq7Ng-238" value="&lt;font style=&quot;font-size: 10px;&quot;&gt;&amp;lt;&amp;lt;extend&amp;gt;&amp;gt;&lt;/font&gt;" style="text;html=1;align=center;verticalAlign=middle;whiteSpace=wrap;rounded=0;fontSize=16;" vertex="1" parent="zj5sX9OP2LHEYqVNq7Ng-242">
          <mxGeometry x="100" y="33" width="60" height="30" as="geometry" />
        </mxCell>
        <mxCell id="zj5sX9OP2LHEYqVNq7Ng-239" value="&lt;font style=&quot;font-size: 10px;&quot;&gt;&amp;lt;&amp;lt;extend&amp;gt;&amp;gt;&lt;/font&gt;" style="text;html=1;align=center;verticalAlign=middle;whiteSpace=wrap;rounded=0;fontSize=16;" vertex="1" parent="zj5sX9OP2LHEYqVNq7Ng-242">
          <mxGeometry x="81" y="109" width="60" height="30" as="geometry" />
        </mxCell>
        <mxCell id="zj5sX9OP2LHEYqVNq7Ng-240" value="&lt;font style=&quot;font-size: 10px;&quot;&gt;&amp;lt;&amp;lt;include&amp;gt;&amp;gt;&lt;/font&gt;" style="text;html=1;align=center;verticalAlign=middle;whiteSpace=wrap;rounded=0;fontSize=16;" vertex="1" parent="zj5sX9OP2LHEYqVNq7Ng-242">
          <mxGeometry x="100" y="133" width="60" height="30" as="geometry" />
        </mxCell>
        <mxCell id="zj5sX9OP2LHEYqVNq7Ng-241" value="&lt;font style=&quot;font-size: 10px;&quot;&gt;&amp;lt;&amp;lt;include&amp;gt;&amp;gt;&lt;/font&gt;" style="text;html=1;align=center;verticalAlign=middle;whiteSpace=wrap;rounded=0;fontSize=16;" vertex="1" parent="zj5sX9OP2LHEYqVNq7Ng-242">
          <mxGeometry x="72" y="76" width="60" height="30" as="geometry" />
        </mxCell>
        <mxCell id="zj5sX9OP2LHEYqVNq7Ng-243" value="내용 수정" style="ellipse;whiteSpace=wrap;html=1;" vertex="1" parent="1">
          <mxGeometry x="399" y="-42" width="76" height="45" as="geometry" />
        </mxCell>
        <mxCell id="zj5sX9OP2LHEYqVNq7Ng-244" value="" style="endArrow=classic;html=1;rounded=0;fontSize=12;startSize=8;endSize=8;curved=1;exitX=1;exitY=0.5;exitDx=0;exitDy=0;entryX=0;entryY=0.5;entryDx=0;entryDy=0;" edge="1" parent="1" source="zj5sX9OP2LHEYqVNq7Ng-6" target="zj5sX9OP2LHEYqVNq7Ng-243">
          <mxGeometry width="50" height="50" relative="1" as="geometry">
            <mxPoint x="-63" y="342" as="sourcePoint" />
            <mxPoint x="-13" y="292" as="targetPoint" />
          </mxGeometry>
        </mxCell>
        <mxCell id="zj5sX9OP2LHEYqVNq7Ng-246" value="" style="endArrow=classic;html=1;rounded=0;fontSize=12;startSize=8;endSize=8;curved=1;exitX=0.5;exitY=0.5;exitDx=0;exitDy=0;exitPerimeter=0;entryX=1;entryY=0.5;entryDx=0;entryDy=0;" edge="1" parent="1" source="zj5sX9OP2LHEYqVNq7Ng-154" target="zj5sX9OP2LHEYqVNq7Ng-243">
          <mxGeometry width="50" height="50" relative="1" as="geometry">
            <mxPoint x="506" y="161" as="sourcePoint" />
            <mxPoint x="556" y="111" as="targetPoint" />
          </mxGeometry>
        </mxCell>
        <mxCell id="zj5sX9OP2LHEYqVNq7Ng-252" value="&lt;font style=&quot;font-size: 10px;&quot;&gt;&amp;lt;&amp;lt;extend&amp;gt;&amp;gt;&lt;/font&gt;" style="text;html=1;align=center;verticalAlign=middle;whiteSpace=wrap;rounded=0;fontSize=16;" vertex="1" parent="1">
          <mxGeometry x="291" y="99" width="60" height="30" as="geometry" />
        </mxCell>
        <mxCell id="zj5sX9OP2LHEYqVNq7Ng-253" value="" style="endArrow=classic;html=1;rounded=0;fontSize=12;startSize=8;endSize=8;curved=1;exitX=1;exitY=0.5;exitDx=0;exitDy=0;entryX=0;entryY=0.5;entryDx=0;entryDy=0;" edge="1" target="zj5sX9OP2LHEYqVNq7Ng-254" parent="1" source="zj5sX9OP2LHEYqVNq7Ng-141">
          <mxGeometry width="50" height="50" relative="1" as="geometry">
            <mxPoint x="244" y="120" as="sourcePoint" />
            <mxPoint x="-13" y="436" as="targetPoint" />
          </mxGeometry>
        </mxCell>
        <mxCell id="zj5sX9OP2LHEYqVNq7Ng-254" value="내용 수정" style="ellipse;whiteSpace=wrap;html=1;" vertex="1" parent="1">
          <mxGeometry x="399" y="99" width="76" height="45" as="geometry" />
        </mxCell>
        <mxCell id="zj5sX9OP2LHEYqVNq7Ng-255" value="" style="endArrow=classic;html=1;rounded=0;fontSize=12;startSize=8;endSize=8;curved=1;exitX=0.5;exitY=0.5;exitDx=0;exitDy=0;exitPerimeter=0;entryX=1;entryY=0.5;entryDx=0;entryDy=0;" edge="1" parent="1" source="zj5sX9OP2LHEYqVNq7Ng-154" target="zj5sX9OP2LHEYqVNq7Ng-254">
          <mxGeometry width="50" height="50" relative="1" as="geometry">
            <mxPoint x="795" y="202" as="sourcePoint" />
            <mxPoint x="845" y="152" as="targetPoint" />
          </mxGeometry>
        </mxCell>
        <mxCell id="zj5sX9OP2LHEYqVNq7Ng-256" value="" style="endArrow=classic;html=1;rounded=0;fontSize=12;startSize=8;endSize=8;curved=1;exitX=0.5;exitY=0.5;exitDx=0;exitDy=0;exitPerimeter=0;entryX=0;entryY=0.5;entryDx=0;entryDy=0;" edge="1" parent="1" source="zj5sX9OP2LHEYqVNq7Ng-2" target="zj5sX9OP2LHEYqVNq7Ng-6">
          <mxGeometry width="50" height="50" relative="1" as="geometry">
            <mxPoint x="-188" y="-13" as="sourcePoint" />
            <mxPoint x="-138" y="-63" as="targetPoint" />
          </mxGeometry>
        </mxCell>
        <mxCell id="zj5sX9OP2LHEYqVNq7Ng-257" value="" style="endArrow=classic;html=1;rounded=0;fontSize=12;startSize=8;endSize=8;curved=1;exitX=0.5;exitY=0.5;exitDx=0;exitDy=0;exitPerimeter=0;entryX=0.5;entryY=0;entryDx=0;entryDy=0;" edge="1" parent="1" source="zj5sX9OP2LHEYqVNq7Ng-2" target="zj5sX9OP2LHEYqVNq7Ng-62">
          <mxGeometry width="50" height="50" relative="1" as="geometry">
            <mxPoint x="-268" y="205" as="sourcePoint" />
            <mxPoint x="-218" y="155" as="targetPoint" />
          </mxGeometry>
        </mxCell>
        <mxCell id="zj5sX9OP2LHEYqVNq7Ng-258" value="" style="endArrow=classic;html=1;rounded=0;fontSize=12;startSize=8;endSize=8;curved=1;exitX=0.5;exitY=0.5;exitDx=0;exitDy=0;exitPerimeter=0;entryX=0;entryY=0.5;entryDx=0;entryDy=0;" edge="1" parent="1" source="zj5sX9OP2LHEYqVNq7Ng-2" target="zj5sX9OP2LHEYqVNq7Ng-231">
          <mxGeometry width="50" height="50" relative="1" as="geometry">
            <mxPoint x="-310" y="475" as="sourcePoint" />
            <mxPoint x="-260" y="425" as="targetPoint" />
          </mxGeometry>
        </mxCell>
        <mxCell id="zj5sX9OP2LHEYqVNq7Ng-259" value="" style="endArrow=classic;html=1;rounded=0;fontSize=12;startSize=8;endSize=8;curved=1;exitX=0.5;exitY=0.5;exitDx=0;exitDy=0;exitPerimeter=0;entryX=0;entryY=0.5;entryDx=0;entryDy=0;" edge="1" parent="1" source="zj5sX9OP2LHEYqVNq7Ng-5" target="zj5sX9OP2LHEYqVNq7Ng-228">
          <mxGeometry width="50" height="50" relative="1" as="geometry">
            <mxPoint x="-271" y="572" as="sourcePoint" />
            <mxPoint x="-221" y="522" as="targetPoint" />
          </mxGeometry>
        </mxCell>
        <mxCell id="zj5sX9OP2LHEYqVNq7Ng-260" value="" style="endArrow=classic;html=1;rounded=0;fontSize=12;startSize=8;endSize=8;curved=1;exitX=0.5;exitY=0.5;exitDx=0;exitDy=0;exitPerimeter=0;entryX=0;entryY=0.5;entryDx=0;entryDy=0;" edge="1" parent="1" source="zj5sX9OP2LHEYqVNq7Ng-5" target="zj5sX9OP2LHEYqVNq7Ng-229">
          <mxGeometry width="50" height="50" relative="1" as="geometry">
            <mxPoint x="-193" y="596" as="sourcePoint" />
            <mxPoint x="-143" y="546" as="targetPoint" />
          </mxGeometry>
        </mxCell>
        <mxCell id="zj5sX9OP2LHEYqVNq7Ng-261" value="" style="endArrow=classic;html=1;rounded=0;fontSize=12;startSize=8;endSize=8;curved=1;exitX=0.5;exitY=0.5;exitDx=0;exitDy=0;exitPerimeter=0;entryX=0;entryY=0.5;entryDx=0;entryDy=0;" edge="1" parent="1" source="zj5sX9OP2LHEYqVNq7Ng-5" target="zj5sX9OP2LHEYqVNq7Ng-212">
          <mxGeometry width="50" height="50" relative="1" as="geometry">
            <mxPoint x="-194" y="708" as="sourcePoint" />
            <mxPoint x="-144" y="658" as="targetPoint" />
          </mxGeometry>
        </mxCell>
        <mxCell id="zj5sX9OP2LHEYqVNq7Ng-262" value="" style="endArrow=classic;html=1;rounded=0;fontSize=12;startSize=8;endSize=8;curved=1;exitX=0.5;exitY=0.5;exitDx=0;exitDy=0;exitPerimeter=0;entryX=0;entryY=0.5;entryDx=0;entryDy=0;" edge="1" parent="1" source="zj5sX9OP2LHEYqVNq7Ng-5" target="zj5sX9OP2LHEYqVNq7Ng-168">
          <mxGeometry width="50" height="50" relative="1" as="geometry">
            <mxPoint x="-296" y="652" as="sourcePoint" />
            <mxPoint x="-246" y="602" as="targetPoint" />
          </mxGeometry>
        </mxCell>
        <mxCell id="zj5sX9OP2LHEYqVNq7Ng-263" value="" style="endArrow=classic;html=1;rounded=0;fontSize=12;startSize=8;endSize=8;curved=1;exitX=0;exitY=0.5;exitDx=0;exitDy=0;entryX=0.5;entryY=0.5;entryDx=0;entryDy=0;entryPerimeter=0;" edge="1" parent="1" source="zj5sX9OP2LHEYqVNq7Ng-230" target="zj5sX9OP2LHEYqVNq7Ng-2">
          <mxGeometry width="50" height="50" relative="1" as="geometry">
            <mxPoint x="1" y="390" as="sourcePoint" />
            <mxPoint x="51" y="340" as="targetPoint" />
          </mxGeometry>
        </mxCell>
        <mxCell id="zj5sX9OP2LHEYqVNq7Ng-264" value="" style="endArrow=classic;html=1;rounded=0;fontSize=12;startSize=8;endSize=8;curved=1;exitX=0.5;exitY=0;exitDx=0;exitDy=0;exitPerimeter=0;entryX=0.5;entryY=0.5;entryDx=0;entryDy=0;entryPerimeter=0;" edge="1" parent="1" source="zj5sX9OP2LHEYqVNq7Ng-5" target="zj5sX9OP2LHEYqVNq7Ng-2">
          <mxGeometry width="50" height="50" relative="1" as="geometry">
            <mxPoint x="-351" y="268" as="sourcePoint" />
            <mxPoint x="-301" y="218" as="targetPoint" />
          </mxGeometry>
        </mxCell>
        <mxCell id="zj5sX9OP2LHEYqVNq7Ng-265" value="" style="endArrow=classic;html=1;rounded=0;fontSize=12;startSize=8;endSize=8;curved=1;exitX=0.5;exitY=0.5;exitDx=0;exitDy=0;exitPerimeter=0;entryX=1;entryY=0.5;entryDx=0;entryDy=0;" edge="1" parent="1" source="zj5sX9OP2LHEYqVNq7Ng-155" target="zj5sX9OP2LHEYqVNq7Ng-66">
          <mxGeometry width="50" height="50" relative="1" as="geometry">
            <mxPoint x="781" y="685" as="sourcePoint" />
            <mxPoint x="831" y="635" as="targetPoint" />
          </mxGeometry>
        </mxCell>
        <mxCell id="zj5sX9OP2LHEYqVNq7Ng-266" value="" style="endArrow=classic;html=1;rounded=0;fontSize=12;startSize=8;endSize=8;curved=1;exitX=0.5;exitY=0.5;exitDx=0;exitDy=0;exitPerimeter=0;entryX=1;entryY=0.5;entryDx=0;entryDy=0;" edge="1" parent="1" source="zj5sX9OP2LHEYqVNq7Ng-155" target="zj5sX9OP2LHEYqVNq7Ng-220">
          <mxGeometry width="50" height="50" relative="1" as="geometry">
            <mxPoint x="735" y="667" as="sourcePoint" />
            <mxPoint x="785" y="617" as="targetPoint" />
          </mxGeometry>
        </mxCell>
        <mxCell id="zj5sX9OP2LHEYqVNq7Ng-267" value="" style="endArrow=classic;html=1;rounded=0;fontSize=12;startSize=8;endSize=8;curved=1;exitX=0.5;exitY=0.5;exitDx=0;exitDy=0;exitPerimeter=0;entryX=1;entryY=0.5;entryDx=0;entryDy=0;" edge="1" parent="1" source="zj5sX9OP2LHEYqVNq7Ng-155" target="zj5sX9OP2LHEYqVNq7Ng-268">
          <mxGeometry width="50" height="50" relative="1" as="geometry">
            <mxPoint x="798" y="679" as="sourcePoint" />
            <mxPoint x="789" y="713" as="targetPoint" />
          </mxGeometry>
        </mxCell>
        <mxCell id="zj5sX9OP2LHEYqVNq7Ng-269" value="" style="endArrow=classic;html=1;rounded=0;fontSize=12;startSize=8;endSize=8;curved=1;exitX=0.5;exitY=0.5;exitDx=0;exitDy=0;exitPerimeter=0;entryX=1;entryY=0.5;entryDx=0;entryDy=0;" edge="1" parent="1" source="zj5sX9OP2LHEYqVNq7Ng-155" target="zj5sX9OP2LHEYqVNq7Ng-192">
          <mxGeometry width="50" height="50" relative="1" as="geometry">
            <mxPoint x="873" y="768" as="sourcePoint" />
            <mxPoint x="923" y="718" as="targetPoint" />
          </mxGeometry>
        </mxCell>
        <mxCell id="zj5sX9OP2LHEYqVNq7Ng-276" value="" style="group" vertex="1" connectable="0" parent="1">
          <mxGeometry x="33" y="501" width="470" height="148" as="geometry" />
        </mxCell>
        <mxCell id="zj5sX9OP2LHEYqVNq7Ng-215" value="" style="group" vertex="1" connectable="0" parent="zj5sX9OP2LHEYqVNq7Ng-276">
          <mxGeometry width="335" height="148" as="geometry" />
        </mxCell>
        <mxCell id="zj5sX9OP2LHEYqVNq7Ng-13" value="&lt;font color=&quot;#cc0000&quot; style=&quot;font-size: 15px;&quot;&gt;&lt;b&gt;자료실&lt;/b&gt;&lt;/font&gt;" style="ellipse;whiteSpace=wrap;html=1;" vertex="1" parent="zj5sX9OP2LHEYqVNq7Ng-215">
          <mxGeometry x="131" y="49" width="93" height="51" as="geometry" />
        </mxCell>
        <mxCell id="zj5sX9OP2LHEYqVNq7Ng-203" value="&lt;b&gt;&lt;font color=&quot;#0000ff&quot;&gt;자료 삭제&lt;/font&gt;&lt;/b&gt;" style="ellipse;whiteSpace=wrap;html=1;" vertex="1" parent="zj5sX9OP2LHEYqVNq7Ng-215">
          <mxGeometry x="259" y="103" width="76" height="45" as="geometry" />
        </mxCell>
        <mxCell id="zj5sX9OP2LHEYqVNq7Ng-204" value="&lt;b&gt;&lt;font color=&quot;#0000ff&quot;&gt;자료 등록&lt;/font&gt;&lt;/b&gt;" style="ellipse;whiteSpace=wrap;html=1;" vertex="1" parent="zj5sX9OP2LHEYqVNq7Ng-215">
          <mxGeometry x="259" y="52" width="76" height="45" as="geometry" />
        </mxCell>
        <mxCell id="zj5sX9OP2LHEYqVNq7Ng-205" value="&lt;b&gt;&lt;font color=&quot;#0000ff&quot;&gt;자료 수정&lt;/font&gt;&lt;/b&gt;" style="ellipse;whiteSpace=wrap;html=1;" vertex="1" parent="zj5sX9OP2LHEYqVNq7Ng-215">
          <mxGeometry x="259" width="76" height="45" as="geometry" />
        </mxCell>
        <mxCell id="zj5sX9OP2LHEYqVNq7Ng-206" value="" style="endArrow=classic;html=1;rounded=0;fontSize=12;startSize=8;endSize=8;curved=1;exitX=0;exitY=0.5;exitDx=0;exitDy=0;entryX=1;entryY=0.5;entryDx=0;entryDy=0;" edge="1" parent="zj5sX9OP2LHEYqVNq7Ng-215" source="zj5sX9OP2LHEYqVNq7Ng-205" target="zj5sX9OP2LHEYqVNq7Ng-13">
          <mxGeometry width="50" height="50" relative="1" as="geometry">
            <mxPoint x="65" y="98" as="sourcePoint" />
            <mxPoint x="115" y="48" as="targetPoint" />
          </mxGeometry>
        </mxCell>
        <mxCell id="zj5sX9OP2LHEYqVNq7Ng-207" value="" style="endArrow=classic;html=1;rounded=0;fontSize=12;startSize=8;endSize=8;curved=1;exitX=0;exitY=0.5;exitDx=0;exitDy=0;entryX=1;entryY=0.5;entryDx=0;entryDy=0;" edge="1" parent="zj5sX9OP2LHEYqVNq7Ng-215" source="zj5sX9OP2LHEYqVNq7Ng-204" target="zj5sX9OP2LHEYqVNq7Ng-13">
          <mxGeometry width="50" height="50" relative="1" as="geometry">
            <mxPoint x="198" y="189" as="sourcePoint" />
            <mxPoint x="248" y="139" as="targetPoint" />
          </mxGeometry>
        </mxCell>
        <mxCell id="zj5sX9OP2LHEYqVNq7Ng-208" value="" style="endArrow=classic;html=1;rounded=0;fontSize=12;startSize=8;endSize=8;curved=1;exitX=0;exitY=0.5;exitDx=0;exitDy=0;entryX=1;entryY=0.5;entryDx=0;entryDy=0;" edge="1" parent="zj5sX9OP2LHEYqVNq7Ng-215" source="zj5sX9OP2LHEYqVNq7Ng-203" target="zj5sX9OP2LHEYqVNq7Ng-13">
          <mxGeometry width="50" height="50" relative="1" as="geometry">
            <mxPoint x="256" y="173" as="sourcePoint" />
            <mxPoint x="306" y="123" as="targetPoint" />
          </mxGeometry>
        </mxCell>
        <mxCell id="zj5sX9OP2LHEYqVNq7Ng-209" value="&lt;font style=&quot;font-size: 10px;&quot;&gt;&amp;lt;&amp;lt;include&amp;gt;&amp;gt;&lt;/font&gt;" style="text;html=1;align=center;verticalAlign=middle;whiteSpace=wrap;rounded=0;fontSize=16;" vertex="1" parent="zj5sX9OP2LHEYqVNq7Ng-215">
          <mxGeometry x="197" y="25" width="60" height="30" as="geometry" />
        </mxCell>
        <mxCell id="zj5sX9OP2LHEYqVNq7Ng-210" value="&lt;font style=&quot;font-size: 10px;&quot;&gt;&amp;lt;&amp;lt;include&amp;gt;&amp;gt;&lt;/font&gt;" style="text;html=1;align=center;verticalAlign=middle;whiteSpace=wrap;rounded=0;fontSize=16;" vertex="1" parent="zj5sX9OP2LHEYqVNq7Ng-215">
          <mxGeometry x="220" y="73" width="60" height="30" as="geometry" />
        </mxCell>
        <mxCell id="zj5sX9OP2LHEYqVNq7Ng-211" value="&lt;font style=&quot;font-size: 10px;&quot;&gt;&amp;lt;&amp;lt;include&amp;gt;&amp;gt;&lt;/font&gt;" style="text;html=1;align=center;verticalAlign=middle;whiteSpace=wrap;rounded=0;fontSize=16;" vertex="1" parent="zj5sX9OP2LHEYqVNq7Ng-215">
          <mxGeometry x="197" y="97" width="60" height="30" as="geometry" />
        </mxCell>
        <mxCell id="zj5sX9OP2LHEYqVNq7Ng-212" value="자료&lt;div&gt;다운로드&lt;/div&gt;" style="ellipse;whiteSpace=wrap;html=1;" vertex="1" parent="zj5sX9OP2LHEYqVNq7Ng-215">
          <mxGeometry y="52" width="76" height="45" as="geometry" />
        </mxCell>
        <mxCell id="zj5sX9OP2LHEYqVNq7Ng-213" value="" style="endArrow=classic;html=1;rounded=0;fontSize=12;startSize=8;endSize=8;curved=1;exitX=1;exitY=0.5;exitDx=0;exitDy=0;entryX=0;entryY=0.5;entryDx=0;entryDy=0;" edge="1" parent="zj5sX9OP2LHEYqVNq7Ng-215" source="zj5sX9OP2LHEYqVNq7Ng-212" target="zj5sX9OP2LHEYqVNq7Ng-13">
          <mxGeometry width="50" height="50" relative="1" as="geometry">
            <mxPoint x="45" y="164" as="sourcePoint" />
            <mxPoint x="95" y="114" as="targetPoint" />
          </mxGeometry>
        </mxCell>
        <mxCell id="zj5sX9OP2LHEYqVNq7Ng-214" value="&lt;font style=&quot;font-size: 10px;&quot;&gt;&amp;lt;&amp;lt;include&amp;gt;&amp;gt;&lt;/font&gt;" style="text;html=1;align=center;verticalAlign=middle;whiteSpace=wrap;rounded=0;fontSize=16;" vertex="1" parent="zj5sX9OP2LHEYqVNq7Ng-215">
          <mxGeometry x="71" y="49" width="60" height="30" as="geometry" />
        </mxCell>
        <mxCell id="zj5sX9OP2LHEYqVNq7Ng-268" value="&lt;font style=&quot;font-size: 15px;&quot; color=&quot;#0000cc&quot;&gt;&lt;b&gt;자료 관리&lt;/b&gt;&lt;/font&gt;" style="ellipse;whiteSpace=wrap;html=1;fillColor=#f8cecc;strokeColor=#b85450;" vertex="1" parent="zj5sX9OP2LHEYqVNq7Ng-276">
          <mxGeometry x="394" y="51.5" width="76" height="45" as="geometry" />
        </mxCell>
        <mxCell id="zj5sX9OP2LHEYqVNq7Ng-270" value="" style="endArrow=classic;html=1;rounded=0;fontSize=12;startSize=8;endSize=8;curved=1;exitX=1;exitY=0.5;exitDx=0;exitDy=0;entryX=0;entryY=0.5;entryDx=0;entryDy=0;" edge="1" parent="zj5sX9OP2LHEYqVNq7Ng-276" source="zj5sX9OP2LHEYqVNq7Ng-205" target="zj5sX9OP2LHEYqVNq7Ng-268">
          <mxGeometry width="50" height="50" relative="1" as="geometry">
            <mxPoint x="381" y="200" as="sourcePoint" />
            <mxPoint x="431" y="150" as="targetPoint" />
          </mxGeometry>
        </mxCell>
        <mxCell id="zj5sX9OP2LHEYqVNq7Ng-271" value="" style="endArrow=classic;html=1;rounded=0;fontSize=12;startSize=8;endSize=8;curved=1;exitX=1;exitY=0.5;exitDx=0;exitDy=0;entryX=0;entryY=0.5;entryDx=0;entryDy=0;" edge="1" parent="zj5sX9OP2LHEYqVNq7Ng-276" source="zj5sX9OP2LHEYqVNq7Ng-204" target="zj5sX9OP2LHEYqVNq7Ng-268">
          <mxGeometry width="50" height="50" relative="1" as="geometry">
            <mxPoint x="335" y="38.5" as="sourcePoint" />
            <mxPoint x="394" y="89.5" as="targetPoint" />
          </mxGeometry>
        </mxCell>
        <mxCell id="zj5sX9OP2LHEYqVNq7Ng-272" value="" style="endArrow=classic;html=1;rounded=0;fontSize=12;startSize=8;endSize=8;curved=1;exitX=1;exitY=0.5;exitDx=0;exitDy=0;entryX=0;entryY=0.5;entryDx=0;entryDy=0;" edge="1" parent="zj5sX9OP2LHEYqVNq7Ng-276" source="zj5sX9OP2LHEYqVNq7Ng-203" target="zj5sX9OP2LHEYqVNq7Ng-268">
          <mxGeometry width="50" height="50" relative="1" as="geometry">
            <mxPoint x="335" y="55" as="sourcePoint" />
            <mxPoint x="394" y="106" as="targetPoint" />
          </mxGeometry>
        </mxCell>
        <mxCell id="zj5sX9OP2LHEYqVNq7Ng-273" value="&lt;font style=&quot;font-size: 10px;&quot;&gt;&amp;lt;&amp;lt;extend&amp;gt;&amp;gt;&lt;/font&gt;" style="text;html=1;align=center;verticalAlign=middle;whiteSpace=wrap;rounded=0;fontSize=16;" vertex="1" parent="zj5sX9OP2LHEYqVNq7Ng-276">
          <mxGeometry x="343" y="10" width="60" height="30" as="geometry" />
        </mxCell>
        <mxCell id="zj5sX9OP2LHEYqVNq7Ng-274" value="&lt;font style=&quot;font-size: 10px;&quot;&gt;&amp;lt;&amp;lt;extend&amp;gt;&amp;gt;&lt;/font&gt;" style="text;html=1;align=center;verticalAlign=middle;whiteSpace=wrap;rounded=0;fontSize=16;" vertex="1" parent="zj5sX9OP2LHEYqVNq7Ng-276">
          <mxGeometry x="330" y="51.5" width="60" height="30" as="geometry" />
        </mxCell>
        <mxCell id="zj5sX9OP2LHEYqVNq7Ng-275" value="&lt;font style=&quot;font-size: 10px;&quot;&gt;&amp;lt;&amp;lt;extend&amp;gt;&amp;gt;&lt;/font&gt;" style="text;html=1;align=center;verticalAlign=middle;whiteSpace=wrap;rounded=0;fontSize=16;" vertex="1" parent="zj5sX9OP2LHEYqVNq7Ng-276">
          <mxGeometry x="343" y="96.5" width="60" height="30" as="geometry" />
        </mxCell>
      </root>
    </mxGraphModel>
  </diagram>
</mxfile>
